M48
; DRILL file {KiCad (7.0.0)} date Thu Jun  1 01:21:04 2023
; FORMAT={-:-/ absolute / inch / decimal}
; #@! TF.CreationDate,2023-06-01T01:21:04-06:00
; #@! TF.GenerationSoftware,Kicad,Pcbnew,(7.0.0)
; #@! TF.FileFunction,Plated,1,2,PTH
FMAT,2
INCH
; #@! TA.AperFunction,Plated,PTH,ViaDrill
T1C0.0157
; #@! TA.AperFunction,Plated,PTH,ComponentDrill
T2C0.0276
; #@! TA.AperFunction,Plated,PTH,ComponentDrill
T3C0.0394
; #@! TA.AperFunction,Plated,PTH,ComponentDrill
T4C0.1260
%
G90
G05
T1
X5.0039Y-3.3346
X5.0236Y-1.2087
X5.0315Y-3.1575
X5.0354Y-1.3701
X5.0394Y-3.063
X5.0433Y-3.2283
X5.0472Y-2.9331
X5.131Y-3.2283
X5.1339Y-3.3346
X5.1457Y-2.9331
X5.1535Y-3.063
X5.2047Y-1.374
X5.2717Y-3.1142
X5.311Y-3.1732
X5.311Y-3.3898
X5.4843Y-2.878
X5.5827Y-3.8622
X5.5866Y-1.9016
X5.5866Y-2.7717
X5.5866Y-2.878
X5.6614Y-2.4252
X5.6732Y-2.563
X5.7087Y-2.0197
X5.7126Y-2.7756
X5.7126Y-3.0197
X5.7362Y-1.2087
X5.7441Y-1.9764
X5.7756Y-2.563
X5.7756Y-2.7756
X5.7756Y-2.8898
X5.7913Y-1.937
X5.8031Y-2.7087
X5.8819Y-0.9094
X5.9291Y-1.815
X6.0118Y-2.7008
T2
X6.0278Y-3.4409
X6.1026Y-3.4409
T3
X4.7692Y-2.0276
X4.7692Y-2.1276
X4.7692Y-2.2276
X4.7692Y-2.3276
X4.7692Y-2.4276
X4.7692Y-2.5276
X4.7692Y-2.6276
X4.7692Y-2.7276
X4.7692Y-2.8276
X4.7692Y-2.9276
X4.7692Y-3.0276
X4.7692Y-3.1276
X4.7692Y-3.2276
X4.7692Y-3.3276
X4.7692Y-3.4276
X4.7692Y-3.5276
X4.7692Y-3.6276
X4.7692Y-3.7276
X4.7692Y-3.8276
X4.7692Y-3.9276
X4.7692Y-4.0276
X4.7692Y-4.1276
X4.7692Y-4.2276
X4.7692Y-4.3276
X4.7692Y-4.4276
X4.8692Y-2.0276
X4.8692Y-2.1276
X4.8692Y-2.2276
X4.8692Y-2.3276
X4.8692Y-2.4276
X4.8692Y-2.5276
X4.8692Y-2.6276
X4.8692Y-2.7276
X4.8692Y-2.8276
X4.8692Y-2.9276
X4.8692Y-3.0276
X4.8692Y-3.1276
X4.8692Y-3.2276
X4.8692Y-3.3276
X4.8692Y-3.4276
X4.8692Y-3.5276
X4.8692Y-3.6276
X4.8692Y-3.7276
X4.8692Y-3.8276
X4.8692Y-3.9276
X4.8692Y-4.0276
X4.8692Y-4.1276
X4.8692Y-4.2276
X4.8692Y-4.3276
X4.8692Y-4.4276
X5.5866Y-1.0693
X5.5866Y-1.6693
X5.6866Y-1.0693
X5.6866Y-1.6693
X5.7866Y-1.0693
X5.7866Y-1.6693
X5.8866Y-1.0693
X5.8866Y-1.6693
X5.9866Y-1.0693
X5.9866Y-1.6693
X6.0866Y-1.0693
X6.0866Y-1.6693
X6.7688Y-2.0276
X6.7688Y-2.1276
X6.7688Y-2.2276
X6.7688Y-2.3276
X6.7688Y-2.4276
X6.7688Y-2.5276
X6.7688Y-2.6276
X6.7688Y-2.7276
X6.7688Y-2.8276
X6.7688Y-2.9276
X6.7688Y-3.0276
X6.7688Y-3.1276
X6.7688Y-3.2276
X6.7688Y-3.3276
X6.7688Y-3.4276
X6.7688Y-3.5276
X6.7688Y-3.6276
X6.7688Y-3.7276
X6.7688Y-3.8276
X6.7688Y-3.9276
X6.7688Y-4.0276
X6.7688Y-4.1276
X6.7688Y-4.2276
X6.7688Y-4.3276
X6.7688Y-4.4276
X6.8688Y-2.0276
X6.8688Y-2.1276
X6.8688Y-2.2276
X6.8688Y-2.3276
X6.8688Y-2.4276
X6.8688Y-2.5276
X6.8688Y-2.6276
X6.8688Y-2.7276
X6.8688Y-2.8276
X6.8688Y-2.9276
X6.8688Y-3.0276
X6.8688Y-3.1276
X6.8688Y-3.2276
X6.8688Y-3.3276
X6.8688Y-3.4276
X6.8688Y-3.5276
X6.8688Y-3.6276
X6.8688Y-3.7276
X6.8688Y-3.8276
X6.8688Y-3.9276
X6.8688Y-4.0276
X6.8688Y-4.1276
X6.8688Y-4.2276
X6.8688Y-4.3276
X6.8688Y-4.4276
T4
X4.4173Y-0.9882
X4.4252Y-4.5945
X7.1339Y-1.0039
X7.1457Y-4.5906
T0
M30
