%TF.GenerationSoftware,KiCad,Pcbnew,(7.0.0)*%
%TF.CreationDate,2023-06-01T01:21:08-06:00*%
%TF.ProjectId,FinalProject,46696e61-6c50-4726-9f6a-6563742e6b69,rev?*%
%TF.SameCoordinates,Original*%
%TF.FileFunction,Paste,Top*%
%TF.FilePolarity,Positive*%
%FSLAX46Y46*%
G04 Gerber Fmt 4.6, Leading zero omitted, Abs format (unit mm)*
G04 Created by KiCad (PCBNEW (7.0.0)) date 2023-06-01 01:21:08*
%MOMM*%
%LPD*%
G01*
G04 APERTURE LIST*
G04 Aperture macros list*
%AMRoundRect*
0 Rectangle with rounded corners*
0 $1 Rounding radius*
0 $2 $3 $4 $5 $6 $7 $8 $9 X,Y pos of 4 corners*
0 Add a 4 corners polygon primitive as box body*
4,1,4,$2,$3,$4,$5,$6,$7,$8,$9,$2,$3,0*
0 Add four circle primitives for the rounded corners*
1,1,$1+$1,$2,$3*
1,1,$1+$1,$4,$5*
1,1,$1+$1,$6,$7*
1,1,$1+$1,$8,$9*
0 Add four rect primitives between the rounded corners*
20,1,$1+$1,$2,$3,$4,$5,0*
20,1,$1+$1,$4,$5,$6,$7,0*
20,1,$1+$1,$6,$7,$8,$9,0*
20,1,$1+$1,$8,$9,$2,$3,0*%
G04 Aperture macros list end*
%ADD10RoundRect,0.250000X0.450000X-0.262500X0.450000X0.262500X-0.450000X0.262500X-0.450000X-0.262500X0*%
%ADD11RoundRect,0.250000X-0.450000X0.262500X-0.450000X-0.262500X0.450000X-0.262500X0.450000X0.262500X0*%
%ADD12RoundRect,0.225000X-0.225000X-0.250000X0.225000X-0.250000X0.225000X0.250000X-0.225000X0.250000X0*%
%ADD13RoundRect,0.100000X-0.100000X0.637500X-0.100000X-0.637500X0.100000X-0.637500X0.100000X0.637500X0*%
%ADD14RoundRect,0.250000X0.262500X0.450000X-0.262500X0.450000X-0.262500X-0.450000X0.262500X-0.450000X0*%
%ADD15RoundRect,0.243750X0.243750X0.456250X-0.243750X0.456250X-0.243750X-0.456250X0.243750X-0.456250X0*%
%ADD16R,2.500000X2.500000*%
G04 APERTURE END LIST*
D10*
%TO.C,R7*%
X143200000Y-56112500D03*
X143200000Y-54287500D03*
%TD*%
D11*
%TO.C,R1*%
X148700000Y-69987500D03*
X148700000Y-71812500D03*
%TD*%
D10*
%TO.C,R5*%
X147200000Y-56112500D03*
X147200000Y-54287500D03*
%TD*%
%TO.C,R2*%
X153200000Y-56112500D03*
X153200000Y-54287500D03*
%TD*%
%TO.C,R3*%
X151200000Y-56112500D03*
X151200000Y-54287500D03*
%TD*%
D12*
%TO.C,C1*%
X151125000Y-67400000D03*
X152675000Y-67400000D03*
%TD*%
D13*
%TO.C,U2*%
X149350000Y-61575000D03*
X148700000Y-61575000D03*
X148050000Y-61575000D03*
X147400000Y-61575000D03*
X146750000Y-61575000D03*
X146100000Y-61575000D03*
X145450000Y-61575000D03*
X144800000Y-61575000D03*
X144800000Y-67300000D03*
X145450000Y-67300000D03*
X146100000Y-67300000D03*
X146750000Y-67300000D03*
X147400000Y-67300000D03*
X148050000Y-67300000D03*
X148700000Y-67300000D03*
X149350000Y-67300000D03*
%TD*%
D10*
%TO.C,R8*%
X141200000Y-56112500D03*
X141200000Y-54287500D03*
%TD*%
D14*
%TO.C,R10*%
X135112500Y-74600000D03*
X133287500Y-74600000D03*
%TD*%
D10*
%TO.C,R4*%
X149200000Y-56112500D03*
X149200000Y-54287500D03*
%TD*%
D15*
%TO.C,D1*%
X139337500Y-74600000D03*
X137462500Y-74600000D03*
%TD*%
D16*
%TO.C,RV1*%
X153124999Y-95499999D03*
X143874999Y-97999999D03*
X153124999Y-100499999D03*
%TD*%
D10*
%TO.C,R6*%
X145200000Y-56112500D03*
X145200000Y-54287500D03*
%TD*%
M02*
