%TF.GenerationSoftware,KiCad,Pcbnew,(7.0.0)*%
%TF.CreationDate,2023-06-01T01:21:08-06:00*%
%TF.ProjectId,FinalProject,46696e61-6c50-4726-9f6a-6563742e6b69,rev?*%
%TF.SameCoordinates,Original*%
%TF.FileFunction,Legend,Top*%
%TF.FilePolarity,Positive*%
%FSLAX46Y46*%
G04 Gerber Fmt 4.6, Leading zero omitted, Abs format (unit mm)*
G04 Created by KiCad (PCBNEW (7.0.0)) date 2023-06-01 01:21:08*
%MOMM*%
%LPD*%
G01*
G04 APERTURE LIST*
%ADD10C,0.150000*%
%ADD11C,0.120000*%
G04 APERTURE END LIST*
D10*
X138838095Y-112962380D02*
X138838095Y-111962380D01*
X138838095Y-111962380D02*
X139409523Y-112962380D01*
X139409523Y-112962380D02*
X139409523Y-111962380D01*
X139885714Y-112962380D02*
X139885714Y-112295714D01*
X139885714Y-111962380D02*
X139838095Y-112010000D01*
X139838095Y-112010000D02*
X139885714Y-112057619D01*
X139885714Y-112057619D02*
X139933333Y-112010000D01*
X139933333Y-112010000D02*
X139885714Y-111962380D01*
X139885714Y-111962380D02*
X139885714Y-112057619D01*
X140790475Y-112295714D02*
X140790475Y-113105238D01*
X140790475Y-113105238D02*
X140742856Y-113200476D01*
X140742856Y-113200476D02*
X140695237Y-113248095D01*
X140695237Y-113248095D02*
X140599999Y-113295714D01*
X140599999Y-113295714D02*
X140457142Y-113295714D01*
X140457142Y-113295714D02*
X140361904Y-113248095D01*
X140790475Y-112914761D02*
X140695237Y-112962380D01*
X140695237Y-112962380D02*
X140504761Y-112962380D01*
X140504761Y-112962380D02*
X140409523Y-112914761D01*
X140409523Y-112914761D02*
X140361904Y-112867142D01*
X140361904Y-112867142D02*
X140314285Y-112771904D01*
X140314285Y-112771904D02*
X140314285Y-112486190D01*
X140314285Y-112486190D02*
X140361904Y-112390952D01*
X140361904Y-112390952D02*
X140409523Y-112343333D01*
X140409523Y-112343333D02*
X140504761Y-112295714D01*
X140504761Y-112295714D02*
X140695237Y-112295714D01*
X140695237Y-112295714D02*
X140790475Y-112343333D01*
X141266666Y-112962380D02*
X141266666Y-111962380D01*
X141695237Y-112962380D02*
X141695237Y-112438571D01*
X141695237Y-112438571D02*
X141647618Y-112343333D01*
X141647618Y-112343333D02*
X141552380Y-112295714D01*
X141552380Y-112295714D02*
X141409523Y-112295714D01*
X141409523Y-112295714D02*
X141314285Y-112343333D01*
X141314285Y-112343333D02*
X141266666Y-112390952D01*
X142028571Y-112295714D02*
X142409523Y-112295714D01*
X142171428Y-111962380D02*
X142171428Y-112819523D01*
X142171428Y-112819523D02*
X142219047Y-112914761D01*
X142219047Y-112914761D02*
X142314285Y-112962380D01*
X142314285Y-112962380D02*
X142409523Y-112962380D01*
X143219047Y-112962380D02*
X142742857Y-112962380D01*
X142742857Y-112962380D02*
X142742857Y-111962380D01*
X143552381Y-112962380D02*
X143552381Y-112295714D01*
X143552381Y-111962380D02*
X143504762Y-112010000D01*
X143504762Y-112010000D02*
X143552381Y-112057619D01*
X143552381Y-112057619D02*
X143600000Y-112010000D01*
X143600000Y-112010000D02*
X143552381Y-111962380D01*
X143552381Y-111962380D02*
X143552381Y-112057619D01*
X144457142Y-112295714D02*
X144457142Y-113105238D01*
X144457142Y-113105238D02*
X144409523Y-113200476D01*
X144409523Y-113200476D02*
X144361904Y-113248095D01*
X144361904Y-113248095D02*
X144266666Y-113295714D01*
X144266666Y-113295714D02*
X144123809Y-113295714D01*
X144123809Y-113295714D02*
X144028571Y-113248095D01*
X144457142Y-112914761D02*
X144361904Y-112962380D01*
X144361904Y-112962380D02*
X144171428Y-112962380D01*
X144171428Y-112962380D02*
X144076190Y-112914761D01*
X144076190Y-112914761D02*
X144028571Y-112867142D01*
X144028571Y-112867142D02*
X143980952Y-112771904D01*
X143980952Y-112771904D02*
X143980952Y-112486190D01*
X143980952Y-112486190D02*
X144028571Y-112390952D01*
X144028571Y-112390952D02*
X144076190Y-112343333D01*
X144076190Y-112343333D02*
X144171428Y-112295714D01*
X144171428Y-112295714D02*
X144361904Y-112295714D01*
X144361904Y-112295714D02*
X144457142Y-112343333D01*
X144933333Y-112962380D02*
X144933333Y-111962380D01*
X145361904Y-112962380D02*
X145361904Y-112438571D01*
X145361904Y-112438571D02*
X145314285Y-112343333D01*
X145314285Y-112343333D02*
X145219047Y-112295714D01*
X145219047Y-112295714D02*
X145076190Y-112295714D01*
X145076190Y-112295714D02*
X144980952Y-112343333D01*
X144980952Y-112343333D02*
X144933333Y-112390952D01*
X145695238Y-112295714D02*
X146076190Y-112295714D01*
X145838095Y-111962380D02*
X145838095Y-112819523D01*
X145838095Y-112819523D02*
X145885714Y-112914761D01*
X145885714Y-112914761D02*
X145980952Y-112962380D01*
X145980952Y-112962380D02*
X146076190Y-112962380D01*
X146866667Y-111962380D02*
X147200000Y-112962380D01*
X147200000Y-112962380D02*
X147533333Y-111962380D01*
X148390476Y-112962380D02*
X147819048Y-112962380D01*
X148104762Y-112962380D02*
X148104762Y-111962380D01*
X148104762Y-111962380D02*
X148009524Y-112105238D01*
X148009524Y-112105238D02*
X147914286Y-112200476D01*
X147914286Y-112200476D02*
X147819048Y-112248095D01*
X148819048Y-112867142D02*
X148866667Y-112914761D01*
X148866667Y-112914761D02*
X148819048Y-112962380D01*
X148819048Y-112962380D02*
X148771429Y-112914761D01*
X148771429Y-112914761D02*
X148819048Y-112867142D01*
X148819048Y-112867142D02*
X148819048Y-112962380D01*
X149485714Y-111962380D02*
X149580952Y-111962380D01*
X149580952Y-111962380D02*
X149676190Y-112010000D01*
X149676190Y-112010000D02*
X149723809Y-112057619D01*
X149723809Y-112057619D02*
X149771428Y-112152857D01*
X149771428Y-112152857D02*
X149819047Y-112343333D01*
X149819047Y-112343333D02*
X149819047Y-112581428D01*
X149819047Y-112581428D02*
X149771428Y-112771904D01*
X149771428Y-112771904D02*
X149723809Y-112867142D01*
X149723809Y-112867142D02*
X149676190Y-112914761D01*
X149676190Y-112914761D02*
X149580952Y-112962380D01*
X149580952Y-112962380D02*
X149485714Y-112962380D01*
X149485714Y-112962380D02*
X149390476Y-112914761D01*
X149390476Y-112914761D02*
X149342857Y-112867142D01*
X149342857Y-112867142D02*
X149295238Y-112771904D01*
X149295238Y-112771904D02*
X149247619Y-112581428D01*
X149247619Y-112581428D02*
X149247619Y-112343333D01*
X149247619Y-112343333D02*
X149295238Y-112152857D01*
X149295238Y-112152857D02*
X149342857Y-112057619D01*
X149342857Y-112057619D02*
X149390476Y-112010000D01*
X149390476Y-112010000D02*
X149485714Y-111962380D01*
X138838095Y-114058571D02*
X139171428Y-114058571D01*
X139314285Y-114582380D02*
X138838095Y-114582380D01*
X138838095Y-114582380D02*
X138838095Y-113582380D01*
X138838095Y-113582380D02*
X139314285Y-113582380D01*
X139742857Y-114582380D02*
X139742857Y-113915714D01*
X139742857Y-114010952D02*
X139790476Y-113963333D01*
X139790476Y-113963333D02*
X139885714Y-113915714D01*
X139885714Y-113915714D02*
X140028571Y-113915714D01*
X140028571Y-113915714D02*
X140123809Y-113963333D01*
X140123809Y-113963333D02*
X140171428Y-114058571D01*
X140171428Y-114058571D02*
X140171428Y-114582380D01*
X140171428Y-114058571D02*
X140219047Y-113963333D01*
X140219047Y-113963333D02*
X140314285Y-113915714D01*
X140314285Y-113915714D02*
X140457142Y-113915714D01*
X140457142Y-113915714D02*
X140552381Y-113963333D01*
X140552381Y-113963333D02*
X140600000Y-114058571D01*
X140600000Y-114058571D02*
X140600000Y-114582380D01*
X141076190Y-114582380D02*
X141076190Y-113582380D01*
X141076190Y-113963333D02*
X141171428Y-113915714D01*
X141171428Y-113915714D02*
X141361904Y-113915714D01*
X141361904Y-113915714D02*
X141457142Y-113963333D01*
X141457142Y-113963333D02*
X141504761Y-114010952D01*
X141504761Y-114010952D02*
X141552380Y-114106190D01*
X141552380Y-114106190D02*
X141552380Y-114391904D01*
X141552380Y-114391904D02*
X141504761Y-114487142D01*
X141504761Y-114487142D02*
X141457142Y-114534761D01*
X141457142Y-114534761D02*
X141361904Y-114582380D01*
X141361904Y-114582380D02*
X141171428Y-114582380D01*
X141171428Y-114582380D02*
X141076190Y-114534761D01*
X142361904Y-114534761D02*
X142266666Y-114582380D01*
X142266666Y-114582380D02*
X142076190Y-114582380D01*
X142076190Y-114582380D02*
X141980952Y-114534761D01*
X141980952Y-114534761D02*
X141933333Y-114439523D01*
X141933333Y-114439523D02*
X141933333Y-114058571D01*
X141933333Y-114058571D02*
X141980952Y-113963333D01*
X141980952Y-113963333D02*
X142076190Y-113915714D01*
X142076190Y-113915714D02*
X142266666Y-113915714D01*
X142266666Y-113915714D02*
X142361904Y-113963333D01*
X142361904Y-113963333D02*
X142409523Y-114058571D01*
X142409523Y-114058571D02*
X142409523Y-114153809D01*
X142409523Y-114153809D02*
X141933333Y-114249047D01*
X143266666Y-114582380D02*
X143266666Y-113582380D01*
X143266666Y-114534761D02*
X143171428Y-114582380D01*
X143171428Y-114582380D02*
X142980952Y-114582380D01*
X142980952Y-114582380D02*
X142885714Y-114534761D01*
X142885714Y-114534761D02*
X142838095Y-114487142D01*
X142838095Y-114487142D02*
X142790476Y-114391904D01*
X142790476Y-114391904D02*
X142790476Y-114106190D01*
X142790476Y-114106190D02*
X142838095Y-114010952D01*
X142838095Y-114010952D02*
X142885714Y-113963333D01*
X142885714Y-113963333D02*
X142980952Y-113915714D01*
X142980952Y-113915714D02*
X143171428Y-113915714D01*
X143171428Y-113915714D02*
X143266666Y-113963333D01*
X144171428Y-114582380D02*
X144171428Y-113582380D01*
X144171428Y-114534761D02*
X144076190Y-114582380D01*
X144076190Y-114582380D02*
X143885714Y-114582380D01*
X143885714Y-114582380D02*
X143790476Y-114534761D01*
X143790476Y-114534761D02*
X143742857Y-114487142D01*
X143742857Y-114487142D02*
X143695238Y-114391904D01*
X143695238Y-114391904D02*
X143695238Y-114106190D01*
X143695238Y-114106190D02*
X143742857Y-114010952D01*
X143742857Y-114010952D02*
X143790476Y-113963333D01*
X143790476Y-113963333D02*
X143885714Y-113915714D01*
X143885714Y-113915714D02*
X144076190Y-113915714D01*
X144076190Y-113915714D02*
X144171428Y-113963333D01*
X145028571Y-114534761D02*
X144933333Y-114582380D01*
X144933333Y-114582380D02*
X144742857Y-114582380D01*
X144742857Y-114582380D02*
X144647619Y-114534761D01*
X144647619Y-114534761D02*
X144600000Y-114439523D01*
X144600000Y-114439523D02*
X144600000Y-114058571D01*
X144600000Y-114058571D02*
X144647619Y-113963333D01*
X144647619Y-113963333D02*
X144742857Y-113915714D01*
X144742857Y-113915714D02*
X144933333Y-113915714D01*
X144933333Y-113915714D02*
X145028571Y-113963333D01*
X145028571Y-113963333D02*
X145076190Y-114058571D01*
X145076190Y-114058571D02*
X145076190Y-114153809D01*
X145076190Y-114153809D02*
X144600000Y-114249047D01*
X145933333Y-114582380D02*
X145933333Y-113582380D01*
X145933333Y-114534761D02*
X145838095Y-114582380D01*
X145838095Y-114582380D02*
X145647619Y-114582380D01*
X145647619Y-114582380D02*
X145552381Y-114534761D01*
X145552381Y-114534761D02*
X145504762Y-114487142D01*
X145504762Y-114487142D02*
X145457143Y-114391904D01*
X145457143Y-114391904D02*
X145457143Y-114106190D01*
X145457143Y-114106190D02*
X145504762Y-114010952D01*
X145504762Y-114010952D02*
X145552381Y-113963333D01*
X145552381Y-113963333D02*
X145647619Y-113915714D01*
X145647619Y-113915714D02*
X145838095Y-113915714D01*
X145838095Y-113915714D02*
X145933333Y-113963333D01*
X146961905Y-114534761D02*
X147104762Y-114582380D01*
X147104762Y-114582380D02*
X147342857Y-114582380D01*
X147342857Y-114582380D02*
X147438095Y-114534761D01*
X147438095Y-114534761D02*
X147485714Y-114487142D01*
X147485714Y-114487142D02*
X147533333Y-114391904D01*
X147533333Y-114391904D02*
X147533333Y-114296666D01*
X147533333Y-114296666D02*
X147485714Y-114201428D01*
X147485714Y-114201428D02*
X147438095Y-114153809D01*
X147438095Y-114153809D02*
X147342857Y-114106190D01*
X147342857Y-114106190D02*
X147152381Y-114058571D01*
X147152381Y-114058571D02*
X147057143Y-114010952D01*
X147057143Y-114010952D02*
X147009524Y-113963333D01*
X147009524Y-113963333D02*
X146961905Y-113868095D01*
X146961905Y-113868095D02*
X146961905Y-113772857D01*
X146961905Y-113772857D02*
X147009524Y-113677619D01*
X147009524Y-113677619D02*
X147057143Y-113630000D01*
X147057143Y-113630000D02*
X147152381Y-113582380D01*
X147152381Y-113582380D02*
X147390476Y-113582380D01*
X147390476Y-113582380D02*
X147533333Y-113630000D01*
X147866667Y-113915714D02*
X148104762Y-114582380D01*
X148342857Y-113915714D02*
X148104762Y-114582380D01*
X148104762Y-114582380D02*
X148009524Y-114820476D01*
X148009524Y-114820476D02*
X147961905Y-114868095D01*
X147961905Y-114868095D02*
X147866667Y-114915714D01*
X148676191Y-114534761D02*
X148771429Y-114582380D01*
X148771429Y-114582380D02*
X148961905Y-114582380D01*
X148961905Y-114582380D02*
X149057143Y-114534761D01*
X149057143Y-114534761D02*
X149104762Y-114439523D01*
X149104762Y-114439523D02*
X149104762Y-114391904D01*
X149104762Y-114391904D02*
X149057143Y-114296666D01*
X149057143Y-114296666D02*
X148961905Y-114249047D01*
X148961905Y-114249047D02*
X148819048Y-114249047D01*
X148819048Y-114249047D02*
X148723810Y-114201428D01*
X148723810Y-114201428D02*
X148676191Y-114106190D01*
X148676191Y-114106190D02*
X148676191Y-114058571D01*
X148676191Y-114058571D02*
X148723810Y-113963333D01*
X148723810Y-113963333D02*
X148819048Y-113915714D01*
X148819048Y-113915714D02*
X148961905Y-113915714D01*
X148961905Y-113915714D02*
X149057143Y-113963333D01*
X149390477Y-113915714D02*
X149771429Y-113915714D01*
X149533334Y-113582380D02*
X149533334Y-114439523D01*
X149533334Y-114439523D02*
X149580953Y-114534761D01*
X149580953Y-114534761D02*
X149676191Y-114582380D01*
X149676191Y-114582380D02*
X149771429Y-114582380D01*
X150485715Y-114534761D02*
X150390477Y-114582380D01*
X150390477Y-114582380D02*
X150200001Y-114582380D01*
X150200001Y-114582380D02*
X150104763Y-114534761D01*
X150104763Y-114534761D02*
X150057144Y-114439523D01*
X150057144Y-114439523D02*
X150057144Y-114058571D01*
X150057144Y-114058571D02*
X150104763Y-113963333D01*
X150104763Y-113963333D02*
X150200001Y-113915714D01*
X150200001Y-113915714D02*
X150390477Y-113915714D01*
X150390477Y-113915714D02*
X150485715Y-113963333D01*
X150485715Y-113963333D02*
X150533334Y-114058571D01*
X150533334Y-114058571D02*
X150533334Y-114153809D01*
X150533334Y-114153809D02*
X150057144Y-114249047D01*
X150961906Y-114582380D02*
X150961906Y-113915714D01*
X150961906Y-114010952D02*
X151009525Y-113963333D01*
X151009525Y-113963333D02*
X151104763Y-113915714D01*
X151104763Y-113915714D02*
X151247620Y-113915714D01*
X151247620Y-113915714D02*
X151342858Y-113963333D01*
X151342858Y-113963333D02*
X151390477Y-114058571D01*
X151390477Y-114058571D02*
X151390477Y-114582380D01*
X151390477Y-114058571D02*
X151438096Y-113963333D01*
X151438096Y-113963333D02*
X151533334Y-113915714D01*
X151533334Y-113915714D02*
X151676191Y-113915714D01*
X151676191Y-113915714D02*
X151771430Y-113963333D01*
X151771430Y-113963333D02*
X151819049Y-114058571D01*
X151819049Y-114058571D02*
X151819049Y-114582380D01*
X152247620Y-114534761D02*
X152342858Y-114582380D01*
X152342858Y-114582380D02*
X152533334Y-114582380D01*
X152533334Y-114582380D02*
X152628572Y-114534761D01*
X152628572Y-114534761D02*
X152676191Y-114439523D01*
X152676191Y-114439523D02*
X152676191Y-114391904D01*
X152676191Y-114391904D02*
X152628572Y-114296666D01*
X152628572Y-114296666D02*
X152533334Y-114249047D01*
X152533334Y-114249047D02*
X152390477Y-114249047D01*
X152390477Y-114249047D02*
X152295239Y-114201428D01*
X152295239Y-114201428D02*
X152247620Y-114106190D01*
X152247620Y-114106190D02*
X152247620Y-114058571D01*
X152247620Y-114058571D02*
X152295239Y-113963333D01*
X152295239Y-113963333D02*
X152390477Y-113915714D01*
X152390477Y-113915714D02*
X152533334Y-113915714D01*
X152533334Y-113915714D02*
X152628572Y-113963333D01*
X153657144Y-113677619D02*
X153704763Y-113630000D01*
X153704763Y-113630000D02*
X153800001Y-113582380D01*
X153800001Y-113582380D02*
X154038096Y-113582380D01*
X154038096Y-113582380D02*
X154133334Y-113630000D01*
X154133334Y-113630000D02*
X154180953Y-113677619D01*
X154180953Y-113677619D02*
X154228572Y-113772857D01*
X154228572Y-113772857D02*
X154228572Y-113868095D01*
X154228572Y-113868095D02*
X154180953Y-114010952D01*
X154180953Y-114010952D02*
X153609525Y-114582380D01*
X153609525Y-114582380D02*
X154228572Y-114582380D01*
X154847620Y-113582380D02*
X154942858Y-113582380D01*
X154942858Y-113582380D02*
X155038096Y-113630000D01*
X155038096Y-113630000D02*
X155085715Y-113677619D01*
X155085715Y-113677619D02*
X155133334Y-113772857D01*
X155133334Y-113772857D02*
X155180953Y-113963333D01*
X155180953Y-113963333D02*
X155180953Y-114201428D01*
X155180953Y-114201428D02*
X155133334Y-114391904D01*
X155133334Y-114391904D02*
X155085715Y-114487142D01*
X155085715Y-114487142D02*
X155038096Y-114534761D01*
X155038096Y-114534761D02*
X154942858Y-114582380D01*
X154942858Y-114582380D02*
X154847620Y-114582380D01*
X154847620Y-114582380D02*
X154752382Y-114534761D01*
X154752382Y-114534761D02*
X154704763Y-114487142D01*
X154704763Y-114487142D02*
X154657144Y-114391904D01*
X154657144Y-114391904D02*
X154609525Y-114201428D01*
X154609525Y-114201428D02*
X154609525Y-113963333D01*
X154609525Y-113963333D02*
X154657144Y-113772857D01*
X154657144Y-113772857D02*
X154704763Y-113677619D01*
X154704763Y-113677619D02*
X154752382Y-113630000D01*
X154752382Y-113630000D02*
X154847620Y-113582380D01*
X155561906Y-113677619D02*
X155609525Y-113630000D01*
X155609525Y-113630000D02*
X155704763Y-113582380D01*
X155704763Y-113582380D02*
X155942858Y-113582380D01*
X155942858Y-113582380D02*
X156038096Y-113630000D01*
X156038096Y-113630000D02*
X156085715Y-113677619D01*
X156085715Y-113677619D02*
X156133334Y-113772857D01*
X156133334Y-113772857D02*
X156133334Y-113868095D01*
X156133334Y-113868095D02*
X156085715Y-114010952D01*
X156085715Y-114010952D02*
X155514287Y-114582380D01*
X155514287Y-114582380D02*
X156133334Y-114582380D01*
X156466668Y-113582380D02*
X157085715Y-113582380D01*
X157085715Y-113582380D02*
X156752382Y-113963333D01*
X156752382Y-113963333D02*
X156895239Y-113963333D01*
X156895239Y-113963333D02*
X156990477Y-114010952D01*
X156990477Y-114010952D02*
X157038096Y-114058571D01*
X157038096Y-114058571D02*
X157085715Y-114153809D01*
X157085715Y-114153809D02*
X157085715Y-114391904D01*
X157085715Y-114391904D02*
X157038096Y-114487142D01*
X157038096Y-114487142D02*
X156990477Y-114534761D01*
X156990477Y-114534761D02*
X156895239Y-114582380D01*
X156895239Y-114582380D02*
X156609525Y-114582380D01*
X156609525Y-114582380D02*
X156514287Y-114534761D01*
X156514287Y-114534761D02*
X156466668Y-114487142D01*
%TO.C,R9*%
X153888333Y-89687380D02*
X153555000Y-89211190D01*
X153316905Y-89687380D02*
X153316905Y-88687380D01*
X153316905Y-88687380D02*
X153697857Y-88687380D01*
X153697857Y-88687380D02*
X153793095Y-88735000D01*
X153793095Y-88735000D02*
X153840714Y-88782619D01*
X153840714Y-88782619D02*
X153888333Y-88877857D01*
X153888333Y-88877857D02*
X153888333Y-89020714D01*
X153888333Y-89020714D02*
X153840714Y-89115952D01*
X153840714Y-89115952D02*
X153793095Y-89163571D01*
X153793095Y-89163571D02*
X153697857Y-89211190D01*
X153697857Y-89211190D02*
X153316905Y-89211190D01*
X154364524Y-89687380D02*
X154555000Y-89687380D01*
X154555000Y-89687380D02*
X154650238Y-89639761D01*
X154650238Y-89639761D02*
X154697857Y-89592142D01*
X154697857Y-89592142D02*
X154793095Y-89449285D01*
X154793095Y-89449285D02*
X154840714Y-89258809D01*
X154840714Y-89258809D02*
X154840714Y-88877857D01*
X154840714Y-88877857D02*
X154793095Y-88782619D01*
X154793095Y-88782619D02*
X154745476Y-88735000D01*
X154745476Y-88735000D02*
X154650238Y-88687380D01*
X154650238Y-88687380D02*
X154459762Y-88687380D01*
X154459762Y-88687380D02*
X154364524Y-88735000D01*
X154364524Y-88735000D02*
X154316905Y-88782619D01*
X154316905Y-88782619D02*
X154269286Y-88877857D01*
X154269286Y-88877857D02*
X154269286Y-89115952D01*
X154269286Y-89115952D02*
X154316905Y-89211190D01*
X154316905Y-89211190D02*
X154364524Y-89258809D01*
X154364524Y-89258809D02*
X154459762Y-89306428D01*
X154459762Y-89306428D02*
X154650238Y-89306428D01*
X154650238Y-89306428D02*
X154745476Y-89258809D01*
X154745476Y-89258809D02*
X154793095Y-89211190D01*
X154793095Y-89211190D02*
X154840714Y-89115952D01*
%TO.C,J2*%
X172864166Y-48097380D02*
X172864166Y-48811666D01*
X172864166Y-48811666D02*
X172816547Y-48954523D01*
X172816547Y-48954523D02*
X172721309Y-49049761D01*
X172721309Y-49049761D02*
X172578452Y-49097380D01*
X172578452Y-49097380D02*
X172483214Y-49097380D01*
X173292738Y-48192619D02*
X173340357Y-48145000D01*
X173340357Y-48145000D02*
X173435595Y-48097380D01*
X173435595Y-48097380D02*
X173673690Y-48097380D01*
X173673690Y-48097380D02*
X173768928Y-48145000D01*
X173768928Y-48145000D02*
X173816547Y-48192619D01*
X173816547Y-48192619D02*
X173864166Y-48287857D01*
X173864166Y-48287857D02*
X173864166Y-48383095D01*
X173864166Y-48383095D02*
X173816547Y-48525952D01*
X173816547Y-48525952D02*
X173245119Y-49097380D01*
X173245119Y-49097380D02*
X173864166Y-49097380D01*
%TO.C,R7*%
X143767380Y-58066666D02*
X143291190Y-58399999D01*
X143767380Y-58638094D02*
X142767380Y-58638094D01*
X142767380Y-58638094D02*
X142767380Y-58257142D01*
X142767380Y-58257142D02*
X142815000Y-58161904D01*
X142815000Y-58161904D02*
X142862619Y-58114285D01*
X142862619Y-58114285D02*
X142957857Y-58066666D01*
X142957857Y-58066666D02*
X143100714Y-58066666D01*
X143100714Y-58066666D02*
X143195952Y-58114285D01*
X143195952Y-58114285D02*
X143243571Y-58161904D01*
X143243571Y-58161904D02*
X143291190Y-58257142D01*
X143291190Y-58257142D02*
X143291190Y-58638094D01*
X142767380Y-57733332D02*
X142767380Y-57066666D01*
X142767380Y-57066666D02*
X143767380Y-57495237D01*
%TO.C,R1*%
X150733333Y-71267380D02*
X150400000Y-70791190D01*
X150161905Y-71267380D02*
X150161905Y-70267380D01*
X150161905Y-70267380D02*
X150542857Y-70267380D01*
X150542857Y-70267380D02*
X150638095Y-70315000D01*
X150638095Y-70315000D02*
X150685714Y-70362619D01*
X150685714Y-70362619D02*
X150733333Y-70457857D01*
X150733333Y-70457857D02*
X150733333Y-70600714D01*
X150733333Y-70600714D02*
X150685714Y-70695952D01*
X150685714Y-70695952D02*
X150638095Y-70743571D01*
X150638095Y-70743571D02*
X150542857Y-70791190D01*
X150542857Y-70791190D02*
X150161905Y-70791190D01*
X151685714Y-71267380D02*
X151114286Y-71267380D01*
X151400000Y-71267380D02*
X151400000Y-70267380D01*
X151400000Y-70267380D02*
X151304762Y-70410238D01*
X151304762Y-70410238D02*
X151209524Y-70505476D01*
X151209524Y-70505476D02*
X151114286Y-70553095D01*
%TO.C,R5*%
X147667380Y-58066666D02*
X147191190Y-58399999D01*
X147667380Y-58638094D02*
X146667380Y-58638094D01*
X146667380Y-58638094D02*
X146667380Y-58257142D01*
X146667380Y-58257142D02*
X146715000Y-58161904D01*
X146715000Y-58161904D02*
X146762619Y-58114285D01*
X146762619Y-58114285D02*
X146857857Y-58066666D01*
X146857857Y-58066666D02*
X147000714Y-58066666D01*
X147000714Y-58066666D02*
X147095952Y-58114285D01*
X147095952Y-58114285D02*
X147143571Y-58161904D01*
X147143571Y-58161904D02*
X147191190Y-58257142D01*
X147191190Y-58257142D02*
X147191190Y-58638094D01*
X146667380Y-57161904D02*
X146667380Y-57638094D01*
X146667380Y-57638094D02*
X147143571Y-57685713D01*
X147143571Y-57685713D02*
X147095952Y-57638094D01*
X147095952Y-57638094D02*
X147048333Y-57542856D01*
X147048333Y-57542856D02*
X147048333Y-57304761D01*
X147048333Y-57304761D02*
X147095952Y-57209523D01*
X147095952Y-57209523D02*
X147143571Y-57161904D01*
X147143571Y-57161904D02*
X147238809Y-57114285D01*
X147238809Y-57114285D02*
X147476904Y-57114285D01*
X147476904Y-57114285D02*
X147572142Y-57161904D01*
X147572142Y-57161904D02*
X147619761Y-57209523D01*
X147619761Y-57209523D02*
X147667380Y-57304761D01*
X147667380Y-57304761D02*
X147667380Y-57542856D01*
X147667380Y-57542856D02*
X147619761Y-57638094D01*
X147619761Y-57638094D02*
X147572142Y-57685713D01*
%TO.C,R2*%
X153667380Y-58066666D02*
X153191190Y-58399999D01*
X153667380Y-58638094D02*
X152667380Y-58638094D01*
X152667380Y-58638094D02*
X152667380Y-58257142D01*
X152667380Y-58257142D02*
X152715000Y-58161904D01*
X152715000Y-58161904D02*
X152762619Y-58114285D01*
X152762619Y-58114285D02*
X152857857Y-58066666D01*
X152857857Y-58066666D02*
X153000714Y-58066666D01*
X153000714Y-58066666D02*
X153095952Y-58114285D01*
X153095952Y-58114285D02*
X153143571Y-58161904D01*
X153143571Y-58161904D02*
X153191190Y-58257142D01*
X153191190Y-58257142D02*
X153191190Y-58638094D01*
X152762619Y-57685713D02*
X152715000Y-57638094D01*
X152715000Y-57638094D02*
X152667380Y-57542856D01*
X152667380Y-57542856D02*
X152667380Y-57304761D01*
X152667380Y-57304761D02*
X152715000Y-57209523D01*
X152715000Y-57209523D02*
X152762619Y-57161904D01*
X152762619Y-57161904D02*
X152857857Y-57114285D01*
X152857857Y-57114285D02*
X152953095Y-57114285D01*
X152953095Y-57114285D02*
X153095952Y-57161904D01*
X153095952Y-57161904D02*
X153667380Y-57733332D01*
X153667380Y-57733332D02*
X153667380Y-57114285D01*
%TO.C,H3*%
X180238095Y-30467380D02*
X180238095Y-29467380D01*
X180238095Y-29943571D02*
X180809523Y-29943571D01*
X180809523Y-30467380D02*
X180809523Y-29467380D01*
X181190476Y-29467380D02*
X181809523Y-29467380D01*
X181809523Y-29467380D02*
X181476190Y-29848333D01*
X181476190Y-29848333D02*
X181619047Y-29848333D01*
X181619047Y-29848333D02*
X181714285Y-29895952D01*
X181714285Y-29895952D02*
X181761904Y-29943571D01*
X181761904Y-29943571D02*
X181809523Y-30038809D01*
X181809523Y-30038809D02*
X181809523Y-30276904D01*
X181809523Y-30276904D02*
X181761904Y-30372142D01*
X181761904Y-30372142D02*
X181714285Y-30419761D01*
X181714285Y-30419761D02*
X181619047Y-30467380D01*
X181619047Y-30467380D02*
X181333333Y-30467380D01*
X181333333Y-30467380D02*
X181238095Y-30419761D01*
X181238095Y-30419761D02*
X181190476Y-30372142D01*
%TO.C,R3*%
X151667380Y-58066666D02*
X151191190Y-58399999D01*
X151667380Y-58638094D02*
X150667380Y-58638094D01*
X150667380Y-58638094D02*
X150667380Y-58257142D01*
X150667380Y-58257142D02*
X150715000Y-58161904D01*
X150715000Y-58161904D02*
X150762619Y-58114285D01*
X150762619Y-58114285D02*
X150857857Y-58066666D01*
X150857857Y-58066666D02*
X151000714Y-58066666D01*
X151000714Y-58066666D02*
X151095952Y-58114285D01*
X151095952Y-58114285D02*
X151143571Y-58161904D01*
X151143571Y-58161904D02*
X151191190Y-58257142D01*
X151191190Y-58257142D02*
X151191190Y-58638094D01*
X150667380Y-57733332D02*
X150667380Y-57114285D01*
X150667380Y-57114285D02*
X151048333Y-57447618D01*
X151048333Y-57447618D02*
X151048333Y-57304761D01*
X151048333Y-57304761D02*
X151095952Y-57209523D01*
X151095952Y-57209523D02*
X151143571Y-57161904D01*
X151143571Y-57161904D02*
X151238809Y-57114285D01*
X151238809Y-57114285D02*
X151476904Y-57114285D01*
X151476904Y-57114285D02*
X151572142Y-57161904D01*
X151572142Y-57161904D02*
X151619761Y-57209523D01*
X151619761Y-57209523D02*
X151667380Y-57304761D01*
X151667380Y-57304761D02*
X151667380Y-57590475D01*
X151667380Y-57590475D02*
X151619761Y-57685713D01*
X151619761Y-57685713D02*
X151572142Y-57733332D01*
%TO.C,C1*%
X151733333Y-66242142D02*
X151685714Y-66289761D01*
X151685714Y-66289761D02*
X151542857Y-66337380D01*
X151542857Y-66337380D02*
X151447619Y-66337380D01*
X151447619Y-66337380D02*
X151304762Y-66289761D01*
X151304762Y-66289761D02*
X151209524Y-66194523D01*
X151209524Y-66194523D02*
X151161905Y-66099285D01*
X151161905Y-66099285D02*
X151114286Y-65908809D01*
X151114286Y-65908809D02*
X151114286Y-65765952D01*
X151114286Y-65765952D02*
X151161905Y-65575476D01*
X151161905Y-65575476D02*
X151209524Y-65480238D01*
X151209524Y-65480238D02*
X151304762Y-65385000D01*
X151304762Y-65385000D02*
X151447619Y-65337380D01*
X151447619Y-65337380D02*
X151542857Y-65337380D01*
X151542857Y-65337380D02*
X151685714Y-65385000D01*
X151685714Y-65385000D02*
X151733333Y-65432619D01*
X152685714Y-66337380D02*
X152114286Y-66337380D01*
X152400000Y-66337380D02*
X152400000Y-65337380D01*
X152400000Y-65337380D02*
X152304762Y-65480238D01*
X152304762Y-65480238D02*
X152209524Y-65575476D01*
X152209524Y-65575476D02*
X152114286Y-65623095D01*
%TO.C,U2*%
X146538095Y-63567380D02*
X146538095Y-64376904D01*
X146538095Y-64376904D02*
X146585714Y-64472142D01*
X146585714Y-64472142D02*
X146633333Y-64519761D01*
X146633333Y-64519761D02*
X146728571Y-64567380D01*
X146728571Y-64567380D02*
X146919047Y-64567380D01*
X146919047Y-64567380D02*
X147014285Y-64519761D01*
X147014285Y-64519761D02*
X147061904Y-64472142D01*
X147061904Y-64472142D02*
X147109523Y-64376904D01*
X147109523Y-64376904D02*
X147109523Y-63567380D01*
X147538095Y-63662619D02*
X147585714Y-63615000D01*
X147585714Y-63615000D02*
X147680952Y-63567380D01*
X147680952Y-63567380D02*
X147919047Y-63567380D01*
X147919047Y-63567380D02*
X148014285Y-63615000D01*
X148014285Y-63615000D02*
X148061904Y-63662619D01*
X148061904Y-63662619D02*
X148109523Y-63757857D01*
X148109523Y-63757857D02*
X148109523Y-63853095D01*
X148109523Y-63853095D02*
X148061904Y-63995952D01*
X148061904Y-63995952D02*
X147490476Y-64567380D01*
X147490476Y-64567380D02*
X148109523Y-64567380D01*
%TO.C,H4*%
X180738095Y-112767380D02*
X180738095Y-111767380D01*
X180738095Y-112243571D02*
X181309523Y-112243571D01*
X181309523Y-112767380D02*
X181309523Y-111767380D01*
X182214285Y-112100714D02*
X182214285Y-112767380D01*
X181976190Y-111719761D02*
X181738095Y-112434047D01*
X181738095Y-112434047D02*
X182357142Y-112434047D01*
%TO.C,R8*%
X141767380Y-58066666D02*
X141291190Y-58399999D01*
X141767380Y-58638094D02*
X140767380Y-58638094D01*
X140767380Y-58638094D02*
X140767380Y-58257142D01*
X140767380Y-58257142D02*
X140815000Y-58161904D01*
X140815000Y-58161904D02*
X140862619Y-58114285D01*
X140862619Y-58114285D02*
X140957857Y-58066666D01*
X140957857Y-58066666D02*
X141100714Y-58066666D01*
X141100714Y-58066666D02*
X141195952Y-58114285D01*
X141195952Y-58114285D02*
X141243571Y-58161904D01*
X141243571Y-58161904D02*
X141291190Y-58257142D01*
X141291190Y-58257142D02*
X141291190Y-58638094D01*
X141195952Y-57495237D02*
X141148333Y-57590475D01*
X141148333Y-57590475D02*
X141100714Y-57638094D01*
X141100714Y-57638094D02*
X141005476Y-57685713D01*
X141005476Y-57685713D02*
X140957857Y-57685713D01*
X140957857Y-57685713D02*
X140862619Y-57638094D01*
X140862619Y-57638094D02*
X140815000Y-57590475D01*
X140815000Y-57590475D02*
X140767380Y-57495237D01*
X140767380Y-57495237D02*
X140767380Y-57304761D01*
X140767380Y-57304761D02*
X140815000Y-57209523D01*
X140815000Y-57209523D02*
X140862619Y-57161904D01*
X140862619Y-57161904D02*
X140957857Y-57114285D01*
X140957857Y-57114285D02*
X141005476Y-57114285D01*
X141005476Y-57114285D02*
X141100714Y-57161904D01*
X141100714Y-57161904D02*
X141148333Y-57209523D01*
X141148333Y-57209523D02*
X141195952Y-57304761D01*
X141195952Y-57304761D02*
X141195952Y-57495237D01*
X141195952Y-57495237D02*
X141243571Y-57590475D01*
X141243571Y-57590475D02*
X141291190Y-57638094D01*
X141291190Y-57638094D02*
X141386428Y-57685713D01*
X141386428Y-57685713D02*
X141576904Y-57685713D01*
X141576904Y-57685713D02*
X141672142Y-57638094D01*
X141672142Y-57638094D02*
X141719761Y-57590475D01*
X141719761Y-57590475D02*
X141767380Y-57495237D01*
X141767380Y-57495237D02*
X141767380Y-57304761D01*
X141767380Y-57304761D02*
X141719761Y-57209523D01*
X141719761Y-57209523D02*
X141672142Y-57161904D01*
X141672142Y-57161904D02*
X141576904Y-57114285D01*
X141576904Y-57114285D02*
X141386428Y-57114285D01*
X141386428Y-57114285D02*
X141291190Y-57161904D01*
X141291190Y-57161904D02*
X141243571Y-57209523D01*
X141243571Y-57209523D02*
X141195952Y-57304761D01*
%TO.C,H2*%
X111338095Y-30067380D02*
X111338095Y-29067380D01*
X111338095Y-29543571D02*
X111909523Y-29543571D01*
X111909523Y-30067380D02*
X111909523Y-29067380D01*
X112338095Y-29162619D02*
X112385714Y-29115000D01*
X112385714Y-29115000D02*
X112480952Y-29067380D01*
X112480952Y-29067380D02*
X112719047Y-29067380D01*
X112719047Y-29067380D02*
X112814285Y-29115000D01*
X112814285Y-29115000D02*
X112861904Y-29162619D01*
X112861904Y-29162619D02*
X112909523Y-29257857D01*
X112909523Y-29257857D02*
X112909523Y-29353095D01*
X112909523Y-29353095D02*
X112861904Y-29495952D01*
X112861904Y-29495952D02*
X112290476Y-30067380D01*
X112290476Y-30067380D02*
X112909523Y-30067380D01*
%TO.C,R10*%
X133657142Y-76967380D02*
X133323809Y-76491190D01*
X133085714Y-76967380D02*
X133085714Y-75967380D01*
X133085714Y-75967380D02*
X133466666Y-75967380D01*
X133466666Y-75967380D02*
X133561904Y-76015000D01*
X133561904Y-76015000D02*
X133609523Y-76062619D01*
X133609523Y-76062619D02*
X133657142Y-76157857D01*
X133657142Y-76157857D02*
X133657142Y-76300714D01*
X133657142Y-76300714D02*
X133609523Y-76395952D01*
X133609523Y-76395952D02*
X133561904Y-76443571D01*
X133561904Y-76443571D02*
X133466666Y-76491190D01*
X133466666Y-76491190D02*
X133085714Y-76491190D01*
X134609523Y-76967380D02*
X134038095Y-76967380D01*
X134323809Y-76967380D02*
X134323809Y-75967380D01*
X134323809Y-75967380D02*
X134228571Y-76110238D01*
X134228571Y-76110238D02*
X134133333Y-76205476D01*
X134133333Y-76205476D02*
X134038095Y-76253095D01*
X135228571Y-75967380D02*
X135323809Y-75967380D01*
X135323809Y-75967380D02*
X135419047Y-76015000D01*
X135419047Y-76015000D02*
X135466666Y-76062619D01*
X135466666Y-76062619D02*
X135514285Y-76157857D01*
X135514285Y-76157857D02*
X135561904Y-76348333D01*
X135561904Y-76348333D02*
X135561904Y-76586428D01*
X135561904Y-76586428D02*
X135514285Y-76776904D01*
X135514285Y-76776904D02*
X135466666Y-76872142D01*
X135466666Y-76872142D02*
X135419047Y-76919761D01*
X135419047Y-76919761D02*
X135323809Y-76967380D01*
X135323809Y-76967380D02*
X135228571Y-76967380D01*
X135228571Y-76967380D02*
X135133333Y-76919761D01*
X135133333Y-76919761D02*
X135085714Y-76872142D01*
X135085714Y-76872142D02*
X135038095Y-76776904D01*
X135038095Y-76776904D02*
X134990476Y-76586428D01*
X134990476Y-76586428D02*
X134990476Y-76348333D01*
X134990476Y-76348333D02*
X135038095Y-76157857D01*
X135038095Y-76157857D02*
X135085714Y-76062619D01*
X135085714Y-76062619D02*
X135133333Y-76015000D01*
X135133333Y-76015000D02*
X135228571Y-75967380D01*
%TO.C,R4*%
X149567380Y-58066666D02*
X149091190Y-58399999D01*
X149567380Y-58638094D02*
X148567380Y-58638094D01*
X148567380Y-58638094D02*
X148567380Y-58257142D01*
X148567380Y-58257142D02*
X148615000Y-58161904D01*
X148615000Y-58161904D02*
X148662619Y-58114285D01*
X148662619Y-58114285D02*
X148757857Y-58066666D01*
X148757857Y-58066666D02*
X148900714Y-58066666D01*
X148900714Y-58066666D02*
X148995952Y-58114285D01*
X148995952Y-58114285D02*
X149043571Y-58161904D01*
X149043571Y-58161904D02*
X149091190Y-58257142D01*
X149091190Y-58257142D02*
X149091190Y-58638094D01*
X148900714Y-57209523D02*
X149567380Y-57209523D01*
X148519761Y-57447618D02*
X149234047Y-57685713D01*
X149234047Y-57685713D02*
X149234047Y-57066666D01*
%TO.C,D1*%
X137761905Y-76967380D02*
X137761905Y-75967380D01*
X137761905Y-75967380D02*
X138000000Y-75967380D01*
X138000000Y-75967380D02*
X138142857Y-76015000D01*
X138142857Y-76015000D02*
X138238095Y-76110238D01*
X138238095Y-76110238D02*
X138285714Y-76205476D01*
X138285714Y-76205476D02*
X138333333Y-76395952D01*
X138333333Y-76395952D02*
X138333333Y-76538809D01*
X138333333Y-76538809D02*
X138285714Y-76729285D01*
X138285714Y-76729285D02*
X138238095Y-76824523D01*
X138238095Y-76824523D02*
X138142857Y-76919761D01*
X138142857Y-76919761D02*
X138000000Y-76967380D01*
X138000000Y-76967380D02*
X137761905Y-76967380D01*
X139285714Y-76967380D02*
X138714286Y-76967380D01*
X139000000Y-76967380D02*
X139000000Y-75967380D01*
X139000000Y-75967380D02*
X138904762Y-76110238D01*
X138904762Y-76110238D02*
X138809524Y-76205476D01*
X138809524Y-76205476D02*
X138714286Y-76253095D01*
%TO.C,U1*%
X120957380Y-43561904D02*
X121766904Y-43561904D01*
X121766904Y-43561904D02*
X121862142Y-43514285D01*
X121862142Y-43514285D02*
X121909761Y-43466666D01*
X121909761Y-43466666D02*
X121957380Y-43371428D01*
X121957380Y-43371428D02*
X121957380Y-43180952D01*
X121957380Y-43180952D02*
X121909761Y-43085714D01*
X121909761Y-43085714D02*
X121862142Y-43038095D01*
X121862142Y-43038095D02*
X121766904Y-42990476D01*
X121766904Y-42990476D02*
X120957380Y-42990476D01*
X121957380Y-41990476D02*
X121957380Y-42561904D01*
X121957380Y-42276190D02*
X120957380Y-42276190D01*
X120957380Y-42276190D02*
X121100238Y-42371428D01*
X121100238Y-42371428D02*
X121195476Y-42466666D01*
X121195476Y-42466666D02*
X121243095Y-42561904D01*
%TO.C,RV1*%
X147904761Y-104517380D02*
X147571428Y-104041190D01*
X147333333Y-104517380D02*
X147333333Y-103517380D01*
X147333333Y-103517380D02*
X147714285Y-103517380D01*
X147714285Y-103517380D02*
X147809523Y-103565000D01*
X147809523Y-103565000D02*
X147857142Y-103612619D01*
X147857142Y-103612619D02*
X147904761Y-103707857D01*
X147904761Y-103707857D02*
X147904761Y-103850714D01*
X147904761Y-103850714D02*
X147857142Y-103945952D01*
X147857142Y-103945952D02*
X147809523Y-103993571D01*
X147809523Y-103993571D02*
X147714285Y-104041190D01*
X147714285Y-104041190D02*
X147333333Y-104041190D01*
X148190476Y-103517380D02*
X148523809Y-104517380D01*
X148523809Y-104517380D02*
X148857142Y-103517380D01*
X149714285Y-104517380D02*
X149142857Y-104517380D01*
X149428571Y-104517380D02*
X149428571Y-103517380D01*
X149428571Y-103517380D02*
X149333333Y-103660238D01*
X149333333Y-103660238D02*
X149238095Y-103755476D01*
X149238095Y-103755476D02*
X149142857Y-103803095D01*
%TO.C,J1*%
X122074166Y-48097380D02*
X122074166Y-48811666D01*
X122074166Y-48811666D02*
X122026547Y-48954523D01*
X122026547Y-48954523D02*
X121931309Y-49049761D01*
X121931309Y-49049761D02*
X121788452Y-49097380D01*
X121788452Y-49097380D02*
X121693214Y-49097380D01*
X123074166Y-49097380D02*
X122502738Y-49097380D01*
X122788452Y-49097380D02*
X122788452Y-48097380D01*
X122788452Y-48097380D02*
X122693214Y-48240238D01*
X122693214Y-48240238D02*
X122597976Y-48335476D01*
X122597976Y-48335476D02*
X122502738Y-48383095D01*
%TO.C,R6*%
X145667380Y-58066666D02*
X145191190Y-58399999D01*
X145667380Y-58638094D02*
X144667380Y-58638094D01*
X144667380Y-58638094D02*
X144667380Y-58257142D01*
X144667380Y-58257142D02*
X144715000Y-58161904D01*
X144715000Y-58161904D02*
X144762619Y-58114285D01*
X144762619Y-58114285D02*
X144857857Y-58066666D01*
X144857857Y-58066666D02*
X145000714Y-58066666D01*
X145000714Y-58066666D02*
X145095952Y-58114285D01*
X145095952Y-58114285D02*
X145143571Y-58161904D01*
X145143571Y-58161904D02*
X145191190Y-58257142D01*
X145191190Y-58257142D02*
X145191190Y-58638094D01*
X144667380Y-57209523D02*
X144667380Y-57399999D01*
X144667380Y-57399999D02*
X144715000Y-57495237D01*
X144715000Y-57495237D02*
X144762619Y-57542856D01*
X144762619Y-57542856D02*
X144905476Y-57638094D01*
X144905476Y-57638094D02*
X145095952Y-57685713D01*
X145095952Y-57685713D02*
X145476904Y-57685713D01*
X145476904Y-57685713D02*
X145572142Y-57638094D01*
X145572142Y-57638094D02*
X145619761Y-57590475D01*
X145619761Y-57590475D02*
X145667380Y-57495237D01*
X145667380Y-57495237D02*
X145667380Y-57304761D01*
X145667380Y-57304761D02*
X145619761Y-57209523D01*
X145619761Y-57209523D02*
X145572142Y-57161904D01*
X145572142Y-57161904D02*
X145476904Y-57114285D01*
X145476904Y-57114285D02*
X145238809Y-57114285D01*
X145238809Y-57114285D02*
X145143571Y-57161904D01*
X145143571Y-57161904D02*
X145095952Y-57209523D01*
X145095952Y-57209523D02*
X145048333Y-57304761D01*
X145048333Y-57304761D02*
X145048333Y-57495237D01*
X145048333Y-57495237D02*
X145095952Y-57590475D01*
X145095952Y-57590475D02*
X145143571Y-57638094D01*
X145143571Y-57638094D02*
X145238809Y-57685713D01*
%TO.C,H1*%
X111638095Y-112867380D02*
X111638095Y-111867380D01*
X111638095Y-112343571D02*
X112209523Y-112343571D01*
X112209523Y-112867380D02*
X112209523Y-111867380D01*
X113209523Y-112867380D02*
X112638095Y-112867380D01*
X112923809Y-112867380D02*
X112923809Y-111867380D01*
X112923809Y-111867380D02*
X112828571Y-112010238D01*
X112828571Y-112010238D02*
X112733333Y-112105476D01*
X112733333Y-112105476D02*
X112638095Y-112153095D01*
D11*
%TO.C,R9*%
X154587867Y-88099999D02*
G75*
G03*
X154684905Y-86650642I417133J699999D01*
G01*
%TO.C,J2*%
X170597500Y-50170000D02*
X170597500Y-113790000D01*
X170597500Y-50170000D02*
X173197500Y-50170000D01*
X170597500Y-113790000D02*
X175797500Y-113790000D01*
X173197500Y-50170000D02*
X173197500Y-52770000D01*
X173197500Y-52770000D02*
X175797500Y-52770000D01*
X174467500Y-50170000D02*
X175797500Y-50170000D01*
X175797500Y-50170000D02*
X175797500Y-51500000D01*
X175797500Y-52770000D02*
X175797500Y-113790000D01*
%TO.C,R7*%
X142465000Y-55427064D02*
X142465000Y-54972936D01*
X143935000Y-55427064D02*
X143935000Y-54972936D01*
%TO.C,R1*%
X149435000Y-70672936D02*
X149435000Y-71127064D01*
X147965000Y-70672936D02*
X147965000Y-71127064D01*
%TO.C,R5*%
X146465000Y-55427064D02*
X146465000Y-54972936D01*
X147935000Y-55427064D02*
X147935000Y-54972936D01*
%TO.C,R2*%
X152465000Y-55427064D02*
X152465000Y-54972936D01*
X153935000Y-55427064D02*
X153935000Y-54972936D01*
%TO.C,R3*%
X150465000Y-55427064D02*
X150465000Y-54972936D01*
X151935000Y-55427064D02*
X151935000Y-54972936D01*
%TO.C,C1*%
X151759420Y-66890000D02*
X152040580Y-66890000D01*
X151759420Y-67910000D02*
X152040580Y-67910000D01*
%TO.C,U2*%
X149810000Y-64437500D02*
X149810000Y-60837500D01*
X149810000Y-64437500D02*
X149810000Y-66637500D01*
X144340000Y-64437500D02*
X144340000Y-62237500D01*
X144340000Y-64437500D02*
X144340000Y-66637500D01*
%TO.C,R8*%
X140465000Y-55427064D02*
X140465000Y-54972936D01*
X141935000Y-55427064D02*
X141935000Y-54972936D01*
%TO.C,R10*%
X134427064Y-75335000D02*
X133972936Y-75335000D01*
X134427064Y-73865000D02*
X133972936Y-73865000D01*
%TO.C,R4*%
X148465000Y-55427064D02*
X148465000Y-54972936D01*
X149935000Y-55427064D02*
X149935000Y-54972936D01*
%TO.C,D1*%
X140085000Y-75560000D02*
X140085000Y-73640000D01*
X140085000Y-73640000D02*
X137400000Y-73640000D01*
X137400000Y-75560000D02*
X140085000Y-75560000D01*
%TO.C,U1*%
X140900000Y-44780000D02*
X142900000Y-44780000D01*
X122980000Y-44400000D02*
X173520000Y-44400000D01*
X122980000Y-44400000D02*
X122980000Y-25160000D01*
X173520000Y-44400000D02*
X173520000Y-25160000D01*
X173520000Y-25160000D02*
X122980000Y-25160000D01*
%TO.C,RV1*%
X153620000Y-103021000D02*
X153620000Y-101991000D01*
X153620000Y-103021000D02*
X143380000Y-103021000D01*
X153620000Y-99009000D02*
X153620000Y-96990000D01*
X153620000Y-94010000D02*
X153620000Y-92980000D01*
X153620000Y-92980000D02*
X143380000Y-92980000D01*
X143380000Y-103021000D02*
X143380000Y-99490000D01*
X143380000Y-96510000D02*
X143380000Y-92980000D01*
%TO.C,J1*%
X119807500Y-50170000D02*
X119807500Y-113790000D01*
X119807500Y-50170000D02*
X122407500Y-50170000D01*
X119807500Y-113790000D02*
X125007500Y-113790000D01*
X122407500Y-50170000D02*
X122407500Y-52770000D01*
X122407500Y-52770000D02*
X125007500Y-52770000D01*
X123677500Y-50170000D02*
X125007500Y-50170000D01*
X125007500Y-50170000D02*
X125007500Y-51500000D01*
X125007500Y-52770000D02*
X125007500Y-113790000D01*
%TO.C,R6*%
X144465000Y-55427064D02*
X144465000Y-54972936D01*
X145935000Y-55427064D02*
X145935000Y-54972936D01*
%TD*%
M02*
