%TF.GenerationSoftware,KiCad,Pcbnew,(7.0.0)*%
%TF.CreationDate,2023-06-01T01:21:08-06:00*%
%TF.ProjectId,FinalProject,46696e61-6c50-4726-9f6a-6563742e6b69,rev?*%
%TF.SameCoordinates,Original*%
%TF.FileFunction,Soldermask,Bot*%
%TF.FilePolarity,Negative*%
%FSLAX46Y46*%
G04 Gerber Fmt 4.6, Leading zero omitted, Abs format (unit mm)*
G04 Created by KiCad (PCBNEW (7.0.0)) date 2023-06-01 01:21:08*
%MOMM*%
%LPD*%
G01*
G04 APERTURE LIST*
%ADD10O,1.400000X1.400000*%
%ADD11C,1.400000*%
%ADD12R,1.700000X1.700000*%
%ADD13O,1.700000X1.700000*%
%ADD14C,6.400000*%
%ADD15R,1.500000X1.500000*%
%ADD16C,1.500000*%
G04 APERTURE END LIST*
D10*
%TO.C,R9*%
X153104999Y-87399999D03*
D11*
X155005000Y-87400000D03*
%TD*%
D12*
%TO.C,J2*%
X174467499Y-51499999D03*
D13*
X171927499Y-51499999D03*
X174467499Y-54039999D03*
X171927499Y-54039999D03*
X174467499Y-56579999D03*
X171927499Y-56579999D03*
X174467499Y-59119999D03*
X171927499Y-59119999D03*
X174467499Y-61659999D03*
X171927499Y-61659999D03*
X174467499Y-64199999D03*
X171927499Y-64199999D03*
X174467499Y-66739999D03*
X171927499Y-66739999D03*
X174467499Y-69279999D03*
X171927499Y-69279999D03*
X174467499Y-71819999D03*
X171927499Y-71819999D03*
X174467499Y-74359999D03*
X171927499Y-74359999D03*
X174467499Y-76899999D03*
X171927499Y-76899999D03*
X174467499Y-79439999D03*
X171927499Y-79439999D03*
X174467499Y-81979999D03*
X171927499Y-81979999D03*
X174467499Y-84519999D03*
X171927499Y-84519999D03*
X174467499Y-87059999D03*
X171927499Y-87059999D03*
X174467499Y-89599999D03*
X171927499Y-89599999D03*
X174467499Y-92139999D03*
X171927499Y-92139999D03*
X174467499Y-94679999D03*
X171927499Y-94679999D03*
X174467499Y-97219999D03*
X171927499Y-97219999D03*
X174467499Y-99759999D03*
X171927499Y-99759999D03*
X174467499Y-102299999D03*
X171927499Y-102299999D03*
X174467499Y-104839999D03*
X171927499Y-104839999D03*
X174467499Y-107379999D03*
X171927499Y-107379999D03*
X174467499Y-109919999D03*
X171927499Y-109919999D03*
X174467499Y-112459999D03*
X171927499Y-112459999D03*
%TD*%
D14*
%TO.C,H3*%
X181200000Y-25500000D03*
%TD*%
%TO.C,H4*%
X181500000Y-116600000D03*
%TD*%
%TO.C,H2*%
X112200000Y-25100000D03*
%TD*%
D15*
%TO.C,U1*%
X141899999Y-42399999D03*
D16*
X144440000Y-42400000D03*
X146980000Y-42400000D03*
X149520000Y-42400000D03*
X152060000Y-42400000D03*
X154600000Y-42400000D03*
X154600000Y-27160000D03*
X152060000Y-27160000D03*
X149520000Y-27160000D03*
X146980000Y-27160000D03*
X144440000Y-27160000D03*
X141900000Y-27160000D03*
%TD*%
D12*
%TO.C,J1*%
X123677499Y-51499999D03*
D13*
X121137499Y-51499999D03*
X123677499Y-54039999D03*
X121137499Y-54039999D03*
X123677499Y-56579999D03*
X121137499Y-56579999D03*
X123677499Y-59119999D03*
X121137499Y-59119999D03*
X123677499Y-61659999D03*
X121137499Y-61659999D03*
X123677499Y-64199999D03*
X121137499Y-64199999D03*
X123677499Y-66739999D03*
X121137499Y-66739999D03*
X123677499Y-69279999D03*
X121137499Y-69279999D03*
X123677499Y-71819999D03*
X121137499Y-71819999D03*
X123677499Y-74359999D03*
X121137499Y-74359999D03*
X123677499Y-76899999D03*
X121137499Y-76899999D03*
X123677499Y-79439999D03*
X121137499Y-79439999D03*
X123677499Y-81979999D03*
X121137499Y-81979999D03*
X123677499Y-84519999D03*
X121137499Y-84519999D03*
X123677499Y-87059999D03*
X121137499Y-87059999D03*
X123677499Y-89599999D03*
X121137499Y-89599999D03*
X123677499Y-92139999D03*
X121137499Y-92139999D03*
X123677499Y-94679999D03*
X121137499Y-94679999D03*
X123677499Y-97219999D03*
X121137499Y-97219999D03*
X123677499Y-99759999D03*
X121137499Y-99759999D03*
X123677499Y-102299999D03*
X121137499Y-102299999D03*
X123677499Y-104839999D03*
X121137499Y-104839999D03*
X123677499Y-107379999D03*
X121137499Y-107379999D03*
X123677499Y-109919999D03*
X121137499Y-109919999D03*
X123677499Y-112459999D03*
X121137499Y-112459999D03*
%TD*%
D14*
%TO.C,H1*%
X112400000Y-116700000D03*
%TD*%
M02*
