M48
; DRILL file {KiCad (7.0.0)} date Mon Apr 24 03:13:19 2023
; FORMAT={-:-/ absolute / inch / decimal}
; #@! TF.CreationDate,2023-04-24T03:13:19-06:00
; #@! TF.GenerationSoftware,Kicad,Pcbnew,(7.0.0)
; #@! TF.FileFunction,Plated,1,2,PTH
FMAT,2
INCH
; #@! TA.AperFunction,Plated,PTH,ViaDrill
T1C0.0157
; #@! TA.AperFunction,Plated,PTH,ComponentDrill
T2C0.0394
%
G90
G05
T1
X4.4685Y-4.0276
X4.4685Y-4.3307
X4.5709Y-4.185
X4.6299Y-3.7835
X4.6693Y-4.3268
X4.8834Y-3.7278
X5.0276Y-3.1024
X5.0551Y-3.6723
X5.0551Y-3.7372
X5.0673Y-4.874
X5.1009Y-4.4843
X5.1063Y-3.9252
X5.1575Y-3.3189
X5.1575Y-3.3844
X5.1693Y-3.7913
X5.1693Y-3.8504
X5.1732Y-3.6457
X5.1969Y-3.5
X5.2402Y-4.126
X5.2402Y-4.3071
X5.248Y-3.0157
X5.2874Y-3.4724
X5.2913Y-4.126
X5.2914Y-3.7424
X5.3165Y-3.0157
X5.3268Y-4.8937
X5.3386Y-3.0748
X5.3425Y-3.5512
X5.3445Y-4.0846
X5.3465Y-4.2047
X5.3702Y-4.0
X5.3858Y-4.3346
X5.4213Y-3.2087
X5.4331Y-3.1181
X5.4409Y-3.5079
X5.4409Y-4.2087
X5.4776Y-4.1862
X5.4843Y-4.7008
X5.5039Y-3.9567
X5.5236Y-4.2047
X5.5315Y-3.374
X5.5591Y-2.9606
X5.5591Y-3.2008
X5.5669Y-2.7559
X5.6024Y-4.3583
X5.6181Y-2.0551
X5.626Y-3.4764
X5.6535Y-2.689
X5.6929Y-3.6063
X5.6929Y-4.3504
X5.7087Y-4.1339
X5.7126Y-2.9803
X5.748Y-3.626
X5.752Y-2.6339
X5.7593Y-4.1816
X5.7953Y-3.9724
X5.8228Y-4.1339
X5.8346Y-4.5709
X5.867Y-4.1803
X5.8701Y-4.0118
X5.8917Y-3.6535
X5.8917Y-3.75
X5.9134Y-3.8189
X5.9331Y-3.9843
X5.9547Y-3.6535
X5.9547Y-3.7835
X5.9685Y-4.5709
X6.0118Y-3.6535
X6.0118Y-3.8346
X6.063Y-2.7559
X6.1102Y-2.689
X6.1614Y-2.6339
X6.1614Y-4.0472
X6.2244Y-4.0945
X6.2598Y-4.7126
X6.2795Y-4.0472
X6.2889Y-3.6206
X6.2953Y-3.8031
X6.2953Y-4.0945
X6.3622Y-2.6457
X6.3976Y-4.0
X6.4016Y-4.0551
X6.4843Y-4.0
X6.4882Y-4.0551
X7.3224Y-4.4047
X7.3323Y-3.7157
T2
X5.0673Y-4.7087
X5.0673Y-4.8087
X5.1673Y-4.7087
X5.1673Y-4.8087
X5.2673Y-4.7087
X5.2673Y-4.8087
X5.5748Y-4.7012
X5.5748Y-4.8012
X5.6161Y-1.909
X5.6161Y-2.509
X5.6748Y-4.7012
X5.6748Y-4.8012
X5.7161Y-1.909
X5.7161Y-2.509
X5.7748Y-4.7012
X5.7748Y-4.8012
X5.8161Y-1.909
X5.8161Y-2.509
X5.8748Y-4.7012
X5.8748Y-4.8012
X5.9161Y-1.909
X5.9161Y-2.509
X6.0161Y-1.909
X6.0161Y-2.509
X6.1161Y-1.909
X6.1161Y-2.509
X6.2598Y-4.3031
X6.2598Y-4.6024
T0
M30
